Coordinates
version=1
nRows=65
nColumns=12
inDegrees=yes

Units are S.I. units (second, meters, Newtons, ...)
Angles are in degrees

endheader
time	SC_y	SC_z	SC_x	AC_y	AC_z	AC_x	GH_y	GH_z	GH_yy	EL_x	PS_y
       0.0              -20.05          29.75          4.752          38.79         -12.11           16.0          112.2        -0.1802          105.0          121.2          52.69
   0.03283              -20.05          29.75          4.754          38.79         -12.11           16.0          112.2        -0.1761          105.0          121.2          52.68
   0.06565              -20.05          29.74          4.755          38.79          -12.1          15.99          112.2        -0.1718          105.0          121.2          52.68
   0.09848              -20.06          29.74          4.757          38.79          -12.1          15.99          112.2        -0.1672          105.1          121.1          52.67
    0.1313              -20.06          29.74          4.759          38.79          -12.1          15.98          112.2        -0.1623          105.1          121.1          52.66
    0.1641              -20.07          29.74          4.761          38.79         -12.09          15.98          112.2        -0.1571          105.1          121.1          52.65
     0.197              -20.07          29.74          4.763          38.79         -12.09          15.97          112.2        -0.1515          105.1          121.1          52.64
    0.2298              -20.08          29.73          4.766          38.79         -12.09          15.96          112.2        -0.1456          105.1          121.1          52.63
    0.2626              -20.08          29.73          4.768          38.79         -12.08          15.95          112.2        -0.1392          105.1          121.1          52.62
    0.2954              -20.09          29.73          4.771          38.79         -12.08          15.95          112.1        -0.1324          105.1          121.0          52.61
    0.3283              -20.09          29.73          4.774          38.79         -12.07          15.94          112.1        -0.1251          105.1          121.0           52.6
    0.3611               -20.1          29.72          4.777          38.79         -12.07          15.93          112.1        -0.1172          105.1          121.0          52.59
    0.3939              -20.11          29.72          4.781          38.79         -12.06          15.92          112.1        -0.1086          105.1          121.0          52.58
    0.4267              -20.12          29.72          4.784          38.79         -12.06          15.91          112.1       -0.09945          105.1          121.0          52.56
    0.4596              -20.13          29.71          4.788          38.79         -12.05           15.9          112.1        -0.0895          105.1          120.9          52.55
    0.4924              -20.14          29.71          4.793          38.79         -12.04          15.88          112.0        -0.0787          105.1          120.9          52.53
    0.5252              -20.15          29.71          4.797          38.79         -12.03          15.87          112.0       -0.06697          105.1          120.9          52.51
     0.558              -20.16           29.7          4.802          38.79         -12.03          15.86          112.0       -0.05419          105.1          120.8          52.49
    0.5909              -20.17           29.7          4.808          38.79         -12.02          15.84          112.0       -0.04024          105.2          120.8          52.47
    0.6237              -20.18          29.69          4.814          38.79         -12.01          15.82          111.9       -0.02496          105.2          120.7          52.44
    0.6565               -20.2          29.69          4.821          38.79          -12.0           15.8          111.9      -0.008184          105.2          120.7          52.42
    0.6893              -20.21          29.68          4.828          38.79         -11.98          15.78          111.9        0.01028          105.2          120.6          52.39
    0.7222              -20.23          29.67          4.837          38.79         -11.97          15.76          111.8        0.03068          105.2          120.6          52.35
     0.755              -20.25          29.66          4.846          38.79         -11.96          15.73          111.8        0.05327          105.2          120.5          52.32
    0.7878              -20.27          29.65          4.856          38.79         -11.94           15.7          111.7        0.07839          105.3          120.4          52.28
    0.8206               -20.3          29.64          4.867          38.78         -11.92          15.67          111.7         0.1064          105.3          120.4          52.23
    0.8535              -20.33          29.63           4.88          38.78          -11.9          15.63          111.6         0.1378          105.3          120.3          52.18
    0.8863              -20.36          29.62          4.894          38.78         -11.88          15.59          111.5         0.1731          105.3          120.2          52.13
    0.9191              -20.39          29.61           4.91          38.78         -11.85          15.54          111.4         0.2131          105.4          120.1          52.06
    0.9519              -20.43          29.59          4.928          38.78         -11.82          15.49          111.3         0.2584          105.4          119.9          51.99
    0.9848              -20.48          29.57          4.949          38.78         -11.79          15.43          111.2         0.3101          105.5          119.8          51.91
     1.018              -20.53          29.55          4.973          38.78         -11.75          15.36          111.1         0.3694          105.5          119.6          51.81
      1.05              -20.59          29.53            5.0          38.78         -11.71          15.28          111.0          0.438          105.6          119.4           51.7
     1.083              -20.66           29.5          5.032          38.78         -11.65          15.19          110.8         0.5176          105.6          119.2          51.58
     1.116              -20.74          29.46           5.07          38.78         -11.59          15.08          110.6         0.6108          105.7          118.9          51.43
     1.149              -20.84          29.42          5.114          38.78         -11.52          14.95          110.4         0.7206          105.8          118.6          51.25
     1.182              -20.95          29.38          5.166          38.77         -11.44           14.8          110.1         0.8511          105.9          118.2          51.04
     1.215              -21.09          29.32          5.229          38.77         -11.33          14.62          109.8          1.008          106.1          117.8          50.79
     1.247              -21.25          29.25          5.305          38.77         -11.21           14.4          109.4          1.197          106.2          117.2          50.49
      1.28              -21.46          29.17          5.398          38.77         -11.06          14.13          109.0          1.428          106.4          116.6          50.12
     1.313              -21.71          29.07          5.513          38.76         -10.87           13.8          108.4          1.713          106.7          115.8          49.67
     1.346              -22.02          28.94          5.655          38.76         -10.64          13.38          107.6          2.069          107.0          114.8           49.1
     1.379              -22.41          28.78          5.836          38.75         -10.35          12.86          106.7          2.518          107.3          113.5          48.39
     1.411              -22.91          28.58          6.064          38.74         -9.979           12.2          105.6          3.088          107.8          111.8          47.48
     1.444              -23.55          28.32          6.357          38.73         -9.504          11.35          104.1          3.817          108.5          109.8          46.31
     1.477              -24.37          27.98          6.733          38.72         -8.894          10.26          102.2          4.753          109.3          107.1          44.82
      1.51              -25.42          27.56          7.214           38.7         -8.115          8.867          99.71          5.949          110.3          103.7          42.91
     1.543              -26.74          27.02          7.818          38.68         -7.135          7.117          96.64          7.452          111.6          99.37          40.51
     1.576              -28.35          26.37          8.554          38.65         -5.942          4.984          92.89          9.284          113.1          94.13          37.59
     1.608              -30.21          25.61          9.407          38.62         -4.558          2.512          88.55          11.41          114.9          88.06           34.2
     1.641              -32.22          24.78          10.33          38.59          -3.06        -0.1652          83.85          13.71          116.9          81.49          30.53
     1.674              -34.24          23.96          11.25          38.56         -1.562         -2.842          79.15          16.01          118.9          74.92          26.86
     1.707               -36.1           23.2          12.11          38.53        -0.1783         -5.314          74.81          18.13          120.7          68.85          23.47
      1.74              -37.71          22.55          12.84           38.5          1.015         -7.447          71.06          19.96          122.3          63.61          20.55
     1.773              -39.03          22.01          13.45          38.48          1.995         -9.198          67.99          21.47          123.5          59.31          18.15
     1.805              -40.08          21.59          13.93          38.46          2.774         -10.59          65.54          22.66          124.6          55.89          16.24
     1.838               -40.9          21.25           14.3          38.45          3.384         -11.68          63.63           23.6          125.4          53.22          14.75
     1.871              -41.54          20.99           14.6          38.44          3.859         -12.53          62.14          24.33          126.0          51.13          13.59
     1.904              -42.04          20.79          14.83          38.43           4.23         -13.19          60.97           24.9          126.5          49.51          12.68
     1.937              -42.43          20.63          15.01          38.43          4.522         -13.71          60.06          25.35          126.9          48.22          11.96
      1.97              -42.74           20.5          15.15          38.42          4.754         -14.13          59.33           25.7          127.2          47.21          11.39
     2.002              -42.99           20.4          15.26          38.42           4.94         -14.46          58.75          25.99          127.4          46.39          10.94
     2.035               -43.2          20.32          15.36          38.41          5.091         -14.73          58.27          26.22          127.6          45.73          10.57
     2.068              -43.36          20.25          15.43          38.41          5.214         -14.95          57.89          26.41          127.8          45.19          10.27
     2.101               -43.5          20.19          15.49          38.41          5.316         -15.13          57.57          26.56          127.9          44.74          10.02
